<?xml version="1.0" encoding="UTF-8"?>
<svg width="2652px" height="506px" viewBox="0 0 2652 506" version="1.1" xmlns="http://www.w3.org/2000/svg" xmlns:xlink="http://www.w3.org/1999/xlink">
    <!-- Generator: Sketch 44 (41411) - http://www.bohemiancoding.com/sketch -->
    <title>mealbuddy</title>
    <desc>Created with Sketch.</desc>
    <defs></defs>
    <g id="Page-1" stroke="none" stroke-width="1" fill="none" fill-rule="evenodd">
        <path d="M0.75,115 L11.25,115 L11.25,179 C13.25001,170.99996 16.749975,162.833375 21.75,154.5 C26.750025,146.166625 32.9999625,138.6667 40.5,132 C48.0000375,125.3333 56.583285,119.833355 66.25,115.5 C75.916715,111.166645 86.41661,109 97.75,109 C111.416735,109 123.416615,110.99998 133.75,115 C144.083385,119.00002 152.91663,124.3333 160.25,131 C167.58337,137.6667 173.58331,145.583288 178.25,154.75 C182.91669,163.916712 186.416655,173.49995 188.75,183.5 C191.083345,174.499955 194.999973,165.583378 200.5,156.75 C206.000027,147.916622 212.583295,139.916702 220.25,132.75 C227.916705,125.583298 236.666617,119.833355 246.5,115.5 C256.333382,111.166645 266.91661,109 278.25,109 C292.25007,109 304.999942,111.33331 316.5,116 C328.000058,120.66669 337.833292,127.499955 346,136.5 C354.166708,145.500045 360.58331,156.749932 365.25,170.25 C369.91669,183.750068 372.25,199.333245 372.25,217 L372.25,365 L361.75,365 L361.75,218 C361.75,185.666505 353.916745,161.083417 338.25,144.25 C322.583255,127.416583 302.41679,119 277.75,119 C267.08328,119 256.583385,121.499975 246.25,126.5 C235.916615,131.500025 226.75004,138.499955 218.75,147.5 C210.74996,156.500045 204.250025,167.083273 199.25,179.25 C194.249975,191.416727 191.75,204.666595 191.75,219 L191.75,365 L181.25,365 L181.25,218 C181.25,185.666505 173.416745,161.083417 157.75,144.25 C142.083255,127.416583 121.91679,119 97.25,119 C86.58328,119 76.083385,121.499975 65.75,126.5 C55.416615,131.500025 46.25004,138.499955 38.25,147.5 C30.24996,156.500045 23.750025,167.083273 18.75,179.25 C13.749975,191.416727 11.25,204.666595 11.25,219 L11.25,365 L0.75,365 L0.75,115 Z M668.25,233.5 C667.58333,219.166595 664.91669,205.166735 660.25,191.5 C655.58331,177.833265 648.91671,165.66672 640.25,155 C631.58329,144.33328 620.833398,135.6667 608,129 C595.166602,122.3333 580.583415,119 564.25,119 C548.583255,119 534.333398,121.916637 521.5,127.75 C508.666602,133.583363 497.500047,141.583282 488,151.75 C478.499953,161.916718 471.000027,173.99993 465.5,188 C459.999973,202.00007 456.91667,217.166585 456.25,233.5 L668.25,233.5 Z M569.75,371 C552.749915,371 536.666743,367.916698 521.5,361.75 C506.333257,355.583302 493.08339,346.83339 481.75,335.5 C470.41661,324.16661 461.4167,310.416747 454.75,294.25 C448.0833,278.083253 444.75,260.0001 444.75,240 L444.75,239 C444.75,220.666575 447.74997,203.50008 453.75,187.5 C459.75003,171.49992 468.08328,157.750057 478.75,146.25 C489.41672,134.749943 502.08326,125.6667 516.75,119 C531.41674,112.3333 547.41658,109 564.75,109 C584.416765,109 601.499928,112.916628 616,120.75 C630.500072,128.583372 642.499952,138.83327 652,151.5 C661.500048,164.16673 668.499977,178.333255 673,194 C677.500023,209.666745 679.75,225.333255 679.75,241 L679.75,243 L456.25,243 C456.583335,261.00009 459.916635,277.249928 466.25,291.75 C472.583365,306.250072 480.833282,318.666615 491,329 C501.166718,339.333385 513.083265,347.249973 526.75,352.75 C540.416735,358.250027 554.91659,361 570.25,361 C589.58343,361 607.333252,356.083382 623.5,346.25 C639.666748,336.416618 652.74995,324.50007 662.75,310.5 L671.25,316.5 C660.58328,332.166745 646.500088,345.166615 629,355.5 C611.499912,365.833385 591.75011,371 569.75,371 Z M826.75,361 C843.41675,361 858.583265,358.500025 872.25,353.5 C885.916735,348.499975 897.666618,341.916707 907.5,333.75 C917.333382,325.583292 924.91664,316.250052 930.25,305.75 C935.58336,295.249947 938.25,284.500055 938.25,273.5 L938.25,241.5 C924.9166,236.499975 910.750075,232.583347 895.75,229.75 C880.749925,226.916652 863.750095,225.5 844.75,225.5 C830.74993,225.5 817.583395,226.916652 805.25,229.75 C792.916605,232.583347 782.166712,236.916637 773,242.75 C763.833288,248.583362 756.666692,255.83329 751.5,264.5 C746.333308,273.16671 743.75,283.16661 743.75,294.5 L743.75,295.5 C743.75,306.500055 745.999977,316.083292 750.5,324.25 C755.000023,332.416707 761.083295,339.249972 768.75,344.75 C776.416705,350.250027 785.24995,354.33332 795.25,357 C805.25005,359.66668 815.749945,361 826.75,361 Z M826.25,371 C813.916605,371 802.166722,369.416682 791,366.25 C779.833278,363.083318 769.91671,358.333365 761.25,352 C752.58329,345.666635 745.666692,337.83338 740.5,328.5 C735.333307,319.16662 732.75,308.333395 732.75,296 L732.75,295 C732.75,281.999935 735.666637,270.50005 741.5,260.5 C747.333363,250.49995 755.24995,242.1667 765.25,235.5 C775.25005,228.8333 786.999932,223.83335 800.5,220.5 C814.000068,217.16665 828.583255,215.5 844.25,215.5 C861.916755,215.5 878.833253,216.916653 895,219.75 C911.166748,222.583347 925.58327,226.33331 938.25,231 L938.25,210 C938.25,179.666515 929.833417,157.250072 913,142.75 C896.166583,128.249928 873.08348,121 843.75,121 C828.083255,121 813.5834,122.916647 800.25,126.75 C786.9166,130.583353 773.750065,135.666635 760.75,142 L756.75,133 C770.75007,126.3333 784.74993,121.00002 798.75,117 C812.75007,112.99998 827.916585,111 844.25,111 C879.250175,111 905.916575,120.166575 924.25,138.5 C931.916705,146.166705 937.916645,155.99994 942.25,168 C946.583355,180.00006 948.75,193.833255 948.75,209.5 L948.75,365 L938.25,365 L938.25,306 C935.58332,313.33337 931.25003,320.833295 925.25,328.5 C919.24997,336.166705 911.58338,343.166635 902.25,349.5 C892.91662,355.833365 881.91673,360.99998 869.25,365 C856.58327,369.00002 842.25008,371 826.25,371 Z M1039.75,0 L1050.25,0 L1050.25,365 L1039.75,365 L1039.75,0 Z M1271.75,361 C1288.75009,361 1304.33326,357.916698 1318.5,351.75 C1332.66674,345.583302 1344.74995,337.083388 1354.75,326.25 C1364.75005,315.416612 1372.49997,302.66674 1378,288 C1383.50003,273.33326 1386.25,257.66675 1386.25,241 L1386.25,240 C1386.25,223.33325 1383.50003,207.66674 1378,193 C1372.49997,178.33326 1364.75005,165.500055 1354.75,154.5 C1344.74995,143.499945 1332.66674,134.833365 1318.5,128.5 C1304.33326,122.166635 1288.75009,119 1271.75,119 C1254.74991,119 1239.16674,122.249967 1225,128.75 C1210.83326,135.250033 1198.66672,143.999945 1188.5,155 C1178.33328,166.000055 1170.41669,178.749928 1164.75,193.25 C1159.0833,207.750072 1156.25,223.166585 1156.25,239.5 L1156.25,240.5 C1156.25,256.50008 1159.0833,271.83326 1164.75,286.5 C1170.41669,301.16674 1178.41662,313.999945 1188.75,325 C1199.08338,336.000055 1211.24993,344.749967 1225.25,351.25 C1239.25007,357.750033 1254.74991,361 1271.75,361 Z M1272.25,371 C1257.58326,371 1244.0834,368.916688 1231.75,364.75 C1219.41661,360.583312 1208.25005,354.750037 1198.25,347.25 C1188.24995,339.749963 1179.75004,330.916718 1172.75,320.75 C1165.74996,310.583282 1160.41669,299.50006 1156.75,287.5 L1156.75,365 L1146.25,365 L1146.25,0 L1156.75,0 L1156.75,192.5 C1160.41669,180.49994 1165.74996,169.416718 1172.75,159.25 C1179.75004,149.083282 1188.24995,140.250037 1198.25,132.75 C1208.25005,125.249963 1219.41661,119.416688 1231.75,115.25 C1244.0834,111.083312 1257.58326,109 1272.25,109 C1290.25009,109 1306.91659,112.416633 1322.25,119.25 C1337.58341,126.083367 1350.83328,135.333275 1362,147 C1373.16672,158.666725 1381.8333,172.49992 1388,188.5 C1394.1667,204.50008 1397.25,221.49991 1397.25,239.5 L1397.25,240.5 C1397.25,258.50009 1394.1667,275.49992 1388,291.5 C1381.8333,307.50008 1373.16672,321.333275 1362,333 C1350.83328,344.666725 1337.58341,353.916633 1322.25,360.75 C1306.91659,367.583367 1290.25009,371 1272.25,371 Z M1573.75,371 C1556.74991,371 1541.75006,368.250027 1528.75,362.75 C1515.74994,357.249972 1504.83338,349.50005 1496,339.5 C1487.16662,329.49995 1480.41669,317.50007 1475.75,303.5 C1471.08331,289.49993 1468.75,273.83342 1468.75,256.5 L1468.75,115 L1479.25,115 L1479.25,255.5 C1479.25,271.166745 1481.24998,285.499935 1485.25,298.5 C1489.25002,311.500065 1495.24996,322.583288 1503.25,331.75 C1511.25004,340.916712 1521.24994,348.083307 1533.25,353.25 C1545.25006,358.416692 1559.08326,361 1574.75,361 C1588.75007,361 1601.74994,358.250027 1613.75,352.75 C1625.75006,347.249972 1636.24995,339.583382 1645.25,329.75 C1654.25005,319.916617 1661.33331,308.500065 1666.5,295.5 C1671.66669,282.499935 1674.25,268.500075 1674.25,253.5 L1674.25,115 L1684.75,115 L1684.75,365 L1674.25,365 L1674.25,296.5 C1672.24999,304.166705 1668.66669,312.33329 1663.5,321 C1658.33331,329.66671 1651.58337,337.749962 1643.25,345.25 C1634.91663,352.750037 1625.00006,358.916642 1613.5,363.75 C1601.99994,368.583358 1588.75007,371 1573.75,371 Z M1886.75,361 C1903.75009,361 1919.33326,357.750033 1933.5,351.25 C1947.66674,344.749967 1959.83328,336.000055 1970,325 C1980.16672,313.999945 1988.0833,301.250072 1993.75,286.75 C1999.41669,272.249928 2002.25,256.833415 2002.25,240.5 L2002.25,239.5 C2002.25,223.49992 1999.41669,208.16674 1993.75,193.5 C1988.0833,178.83326 1980.08338,166.000055 1969.75,155 C1959.41662,143.999945 1947.25007,135.250033 1933.25,128.75 C1919.24993,122.249967 1903.75009,119 1886.75,119 C1869.74991,119 1854.16674,122.083302 1840,128.25 C1825.83326,134.416698 1813.75005,142.916612 1803.75,153.75 C1793.74995,164.583388 1786.00003,177.33326 1780.5,192 C1774.99997,206.66674 1772.25,222.33325 1772.25,239 L1772.25,240 C1772.25,256.66675 1774.99997,272.33326 1780.5,287 C1786.00003,301.66674 1793.74995,314.499945 1803.75,325.5 C1813.75005,336.500055 1825.83326,345.166635 1840,351.5 C1854.16674,357.833365 1869.74991,361 1886.75,361 Z M1886.25,371 C1868.24991,371 1851.58341,367.583367 1836.25,360.75 C1820.91659,353.916633 1807.66672,344.666725 1796.5,333 C1785.33328,321.333275 1776.6667,307.50008 1770.5,291.5 C1764.3333,275.49992 1761.25,258.50009 1761.25,240.5 L1761.25,239.5 C1761.25,221.49991 1764.3333,204.50008 1770.5,188.5 C1776.6667,172.49992 1785.33328,158.666725 1796.5,147 C1807.66672,135.333275 1820.91659,126.083367 1836.25,119.25 C1851.58341,112.416633 1868.24991,109 1886.25,109 C1900.5834,109 1913.99994,111.083312 1926.5,115.25 C1939.00006,119.416688 1950.24995,125.249963 1960.25,132.75 C1970.25005,140.250037 1978.74996,149.083282 1985.75,159.25 C1992.75004,169.416718 1998.08331,180.49994 2001.75,192.5 L2001.75,0 L2012.25,0 L2012.25,365 L2001.75,365 L2001.75,287.5 C1998.08331,299.50006 1992.75004,310.583282 1985.75,320.75 C1978.74996,330.916718 1970.25005,339.749963 1960.25,347.25 C1950.24995,354.750037 1939.00006,360.583312 1926.5,364.75 C1913.99994,368.916688 1900.5834,371 1886.25,371 Z M2214.25,361 C2231.25009,361 2246.83326,357.750033 2261,351.25 C2275.16674,344.749967 2287.33328,336.000055 2297.5,325 C2307.66672,313.999945 2315.58331,301.250072 2321.25,286.75 C2326.91669,272.249928 2329.75,256.833415 2329.75,240.5 L2329.75,239.5 C2329.75,223.49992 2326.91669,208.16674 2321.25,193.5 C2315.58331,178.83326 2307.58338,166.000055 2297.25,155 C2286.91662,143.999945 2274.75007,135.250033 2260.75,128.75 C2246.74993,122.249967 2231.25009,119 2214.25,119 C2197.24991,119 2181.66674,122.083302 2167.5,128.25 C2153.33326,134.416698 2141.25005,142.916612 2131.25,153.75 C2121.24995,164.583388 2113.50003,177.33326 2108,192 C2102.49997,206.66674 2099.75,222.33325 2099.75,239 L2099.75,240 C2099.75,256.66675 2102.49997,272.33326 2108,287 C2113.50003,301.66674 2121.24995,314.499945 2131.25,325.5 C2141.25005,336.500055 2153.33326,345.166635 2167.5,351.5 C2181.66674,357.833365 2197.24991,361 2214.25,361 Z M2213.75,371 C2195.74991,371 2179.08341,367.583367 2163.75,360.75 C2148.41659,353.916633 2135.16672,344.666725 2124,333 C2112.83328,321.333275 2104.1667,307.50008 2098,291.5 C2091.8333,275.49992 2088.75,258.50009 2088.75,240.5 L2088.75,239.5 C2088.75,221.49991 2091.8333,204.50008 2098,188.5 C2104.1667,172.49992 2112.83328,158.666725 2124,147 C2135.16672,135.333275 2148.41659,126.083367 2163.75,119.25 C2179.08341,112.416633 2195.74991,109 2213.75,109 C2228.0834,109 2241.49994,111.083312 2254,115.25 C2266.50006,119.416688 2277.74995,125.249963 2287.75,132.75 C2297.75005,140.250037 2306.24996,149.083282 2313.25,159.25 C2320.25004,169.416718 2325.58331,180.49994 2329.25,192.5 L2329.25,0 L2339.75,0 L2339.75,365 L2329.25,365 L2329.25,287.5 C2325.58331,299.50006 2320.25004,310.583282 2313.25,320.75 C2306.24996,330.916718 2297.75005,339.749963 2287.75,347.25 C2277.74995,354.750037 2266.50006,360.583312 2254,364.75 C2241.49994,368.916688 2228.0834,371 2213.75,371 Z M2455.25,446.5 C2446.58329,446.5 2438.00004,445.16668 2429.5,442.5 C2420.99996,439.83332 2413.91669,436.666685 2408.25,433 L2413.25,424.5 C2418.91669,427.83335 2425.58329,430.749987 2433.25,433.25 C2440.91671,435.750013 2448.24996,437 2455.25,437 C2462.58337,437 2469.16664,436.083343 2475,434.25 C2480.83336,432.416657 2486.49997,428.83336 2492,423.5 C2497.50003,418.16664 2503.08331,410.83338 2508.75,401.5 C2514.41669,392.16662 2520.74996,380.000075 2527.75,365 L2407.25,115 L2418.75,115 L2532.75,354 L2640.25,115 L2651.25,115 L2535.25,370 C2527.91663,386.00008 2521.1667,398.99995 2515,409 C2508.8333,419.00005 2502.6667,426.749973 2496.5,432.25 C2490.3333,437.750027 2483.9167,441.49999 2477.25,443.5 C2470.5833,445.50001 2463.25004,446.5 2455.25,446.5 Z M2167.9225,496.057247 C2152.16029,502.425591 2136.09321,505.591665 2119.72076,505.555564 C2103.34832,505.519464 2087.78548,502.370174 2073.03178,496.1076 C2058.27808,489.845027 2044.78272,480.467802 2032.5453,467.975644 C2027.2991,462.620242 2006.90026,435.947456 2005.07765,419.895562 L2014.73749,419.895562 C2021.7895,436.460085 2030.96738,450.277996 2042.2714,461.349709 C2053.57541,472.421422 2065.87592,480.843366 2079.17329,486.615794 C2092.47066,492.388223 2106.4851,495.264337 2121.21702,495.244225 C2135.94894,495.224113 2157.71699,489.030114 2164.36724,483.527631 C2169.58932,479.206829 2147.76334,453.025424 2150.38084,435.39518 C2152.99834,417.764936 2162.32939,406.941345 2181.55939,405.124211 C2200.78938,403.307076 2220.85453,432.469309 2225.70682,421.014937 C2226.69087,418.691973 2228.0699,419.315912 2231.4869,405.124211 L2241.6156,407.503158 C2237.59445,426.024934 2229.40658,443.353861 2217.05174,459.490457 C2204.69689,475.627052 2188.32064,487.815861 2167.9225,496.057247 Z M1891.75,293 L1907.25,293 L1907.25,321.5 L1891.75,321.5 L1891.75,293 Z M2219.75,293 L2235.25,293 L2235.25,321.5 L2219.75,321.5 L2219.75,293 Z" id="mealbuddy" fill="#817C7C"></path>
    </g>
</svg>