<?xml version="1.0" encoding="UTF-8"?>
<svg width="2788px" height="513px" viewBox="0 0 2788 513" version="1.1" xmlns="http://www.w3.org/2000/svg" xmlns:xlink="http://www.w3.org/1999/xlink">
    <!-- Generator: Sketch 44 (41411) - http://www.bohemiancoding.com/sketch -->
    <title>Meal Buddy</title>
    <desc>Created with Sketch.</desc>
    <defs></defs>
    <g id="Page-1" stroke="none" stroke-width="1" fill="none" fill-rule="evenodd">
        <path d="M0,15 L10.5,15 L163,232 L315.5,15 L325.5,15 L325.5,365 L314.5,365 L314.5,33.5 L163,249.5 L162.5,249.5 L11,33.5 L11,365 L0,365 L0,15 Z M630,233.5 C629.33333,219.166595 626.66669,205.166735 622,191.5 C617.33331,177.833265 610.66671,165.66672 602,155 C593.33329,144.33328 582.583398,135.6667 569.75,129 C556.916602,122.3333 542.333415,119 526,119 C510.333255,119 496.083398,121.916637 483.25,127.75 C470.416602,133.583363 459.250047,141.583282 449.75,151.75 C440.249953,161.916718 432.750027,173.99993 427.25,188 C421.749973,202.00007 418.66667,217.166585 418,233.5 L630,233.5 Z M531,371 C513.999915,371 497.916743,367.916698 482.75,361.75 C467.583257,355.583302 454.33339,346.83339 443,335.5 C431.66661,324.16661 422.6667,310.416747 416,294.25 C409.3333,278.083253 406,260.0001 406,240 L406,239 C406,220.666575 408.99997,203.50008 415,187.5 C421.00003,171.49992 429.33328,157.750057 440,146.25 C450.66672,134.749943 463.33326,125.6667 478,119 C492.66674,112.3333 508.66658,109 526,109 C545.666765,109 562.749928,112.916628 577.25,120.75 C591.750072,128.583372 603.749953,138.83327 613.25,151.5 C622.750047,164.16673 629.749977,178.333255 634.25,194 C638.750022,209.666745 641,225.333255 641,241 L641,243 L417.5,243 C417.833335,261.00009 421.166635,277.249928 427.5,291.75 C433.833365,306.250072 442.083283,318.666615 452.25,329 C462.416718,339.333385 474.333265,347.249973 488,352.75 C501.666735,358.250027 516.16659,361 531.5,361 C550.83343,361 568.583253,356.083382 584.75,346.25 C600.916747,336.416618 613.99995,324.50007 624,310.5 L632.5,316.5 C621.83328,332.166745 607.750088,345.166615 590.25,355.5 C572.749912,365.833385 553.00011,371 531,371 Z M788.5,361 C805.16675,361 820.333265,358.500025 834,353.5 C847.666735,348.499975 859.416618,341.916708 869.25,333.75 C879.083382,325.583292 886.66664,316.250053 892,305.75 C897.33336,295.249947 900,284.500055 900,273.5 L900,241.5 C886.6666,236.499975 872.500075,232.583348 857.5,229.75 C842.499925,226.916652 825.500095,225.5 806.5,225.5 C792.49993,225.5 779.333395,226.916652 767,229.75 C754.666605,232.583348 743.916712,236.916637 734.75,242.75 C725.583288,248.583363 718.416693,255.83329 713.25,264.5 C708.083308,273.16671 705.5,283.16661 705.5,294.5 L705.5,295.5 C705.5,306.500055 707.749977,316.083292 712.25,324.25 C716.750023,332.416708 722.833295,339.249973 730.5,344.75 C738.166705,350.250027 746.99995,354.33332 757,357 C767.00005,359.66668 777.499945,361 788.5,361 Z M788,371 C775.666605,371 763.916722,369.416682 752.75,366.25 C741.583278,363.083318 731.66671,358.333365 723,352 C714.33329,345.666635 707.416692,337.83338 702.25,328.5 C697.083308,319.16662 694.5,308.333395 694.5,296 L694.5,295 C694.5,281.999935 697.416637,270.50005 703.25,260.5 C709.083363,250.49995 716.99995,242.1667 727,235.5 C737.00005,228.8333 748.749932,223.83335 762.25,220.5 C775.750068,217.16665 790.333255,215.5 806,215.5 C823.666755,215.5 840.583253,216.916652 856.75,219.75 C872.916748,222.583348 887.33327,226.33331 900,231 L900,210 C900,179.666515 891.583417,157.250072 874.75,142.75 C857.916583,128.249928 834.83348,121 805.5,121 C789.833255,121 775.3334,122.916648 762,126.75 C748.6666,130.583352 735.500065,135.666635 722.5,142 L718.5,133 C732.50007,126.3333 746.49993,121.00002 760.5,117 C774.50007,112.99998 789.666585,111 806,111 C841.000175,111 867.666575,120.166575 886,138.5 C893.666705,146.166705 899.666645,155.99994 904,168 C908.333355,180.00006 910.5,193.833255 910.5,209.5 L910.5,365 L900,365 L900,306 C897.33332,313.33337 893.00003,320.833295 887,328.5 C880.99997,336.166705 873.33338,343.166635 864,349.5 C854.66662,355.833365 843.66673,360.99998 831,365 C818.33327,369.00002 804.00008,371 788,371 Z M1001.5,0 L1012,0 L1012,365 L1001.5,365 L1001.5,0 Z M1405,355 C1441.33352,355 1469.41657,348.00007 1489.25,334 C1509.08343,319.99993 1519,300.33346 1519,275 L1519,274 C1519,260.6666 1516.16669,249.00005 1510.5,239 C1504.83331,228.99995 1497.25005,220.583368 1487.75,213.75 C1478.24995,206.916632 1467.0834,201.750018 1454.25,198.25 C1441.4166,194.749982 1427.8334,193 1413.5,193 L1264.5,193 L1264.5,355 L1405,355 Z M1405,183 C1418.00007,183 1430.24994,181.416682 1441.75,178.25 C1453.25006,175.083318 1463.41662,170.250032 1472.25,163.75 C1481.08338,157.249968 1487.99998,149.083382 1493,139.25 C1498.00002,129.416618 1500.5,117.8334 1500.5,104.5 L1500.5,103.5 C1500.5,79.49988 1491.41676,60.4167375 1473.25,46.25 C1455.08324,32.0832625 1429.50016,25 1396.5,25 L1264.5,25 L1264.5,183 L1405,183 Z M1253.5,15 L1397,15 C1438.33354,15 1468.9999,24.9999 1489,45 C1504.00007,60.000075 1511.5,79.333215 1511.5,103 L1511.5,104 C1511.5,125.666775 1505.25006,143.666595 1492.75,158 C1480.24994,172.333405 1464.0001,181.83331 1444,186.5 C1456.00006,188.166675 1467.24995,191.499975 1477.75,196.5 C1488.25005,201.500025 1497.33329,207.749963 1505,215.25 C1512.66671,222.750037 1518.74998,231.416618 1523.25,241.25 C1527.75002,251.083382 1530,261.833275 1530,273.5 L1530,274.5 C1530,303.500145 1519.08344,325.833255 1497.25,341.5 C1475.41656,357.166745 1444.66687,365 1405,365 L1253.5,365 L1253.5,15 Z M1710.5,371 C1693.49992,371 1678.50007,368.250027 1665.5,362.75 C1652.49993,357.249973 1641.58338,349.50005 1632.75,339.5 C1623.91662,329.49995 1617.16669,317.50007 1612.5,303.5 C1607.83331,289.49993 1605.5,273.83342 1605.5,256.5 L1605.5,115 L1616,115 L1616,255.5 C1616,271.166745 1617.99998,285.499935 1622,298.5 C1626.00002,311.500065 1631.99996,322.583287 1640,331.75 C1648.00004,340.916713 1657.99994,348.083307 1670,353.25 C1682.00006,358.416693 1695.83326,361 1711.5,361 C1725.50007,361 1738.49994,358.250027 1750.5,352.75 C1762.50006,347.249973 1772.99995,339.583382 1782,329.75 C1791.00005,319.916618 1798.08331,308.500065 1803.25,295.5 C1808.41669,282.499935 1811,268.500075 1811,253.5 L1811,115 L1821.5,115 L1821.5,365 L1811,365 L1811,296.5 C1808.99999,304.166705 1805.41669,312.33329 1800.25,321 C1795.08331,329.66671 1788.33338,337.749962 1780,345.25 C1771.66662,352.750037 1761.75006,358.916642 1750.25,363.75 C1738.74994,368.583358 1725.50007,371 1710.5,371 Z M2023.5,361 C2040.50009,361 2056.08326,357.750032 2070.25,351.25 C2084.41674,344.749968 2096.58328,336.000055 2106.75,325 C2116.91672,313.999945 2124.83331,301.250072 2130.5,286.75 C2136.16669,272.249928 2139,256.833415 2139,240.5 L2139,239.5 C2139,223.49992 2136.16669,208.16674 2130.5,193.5 C2124.83331,178.83326 2116.83338,166.000055 2106.5,155 C2096.16662,143.999945 2084.00007,135.250032 2070,128.75 C2055.99993,122.249968 2040.50009,119 2023.5,119 C2006.49991,119 1990.91674,122.083303 1976.75,128.25 C1962.58326,134.416697 1950.50005,142.916612 1940.5,153.75 C1930.49995,164.583388 1922.75003,177.33326 1917.25,192 C1911.74997,206.66674 1909,222.33325 1909,239 L1909,240 C1909,256.66675 1911.74997,272.33326 1917.25,287 C1922.75003,301.66674 1930.49995,314.499945 1940.5,325.5 C1950.50005,336.500055 1962.58326,345.166635 1976.75,351.5 C1990.91674,357.833365 2006.49991,361 2023.5,361 Z M2023,371 C2004.99991,371 1988.33341,367.583368 1973,360.75 C1957.66659,353.916633 1944.41672,344.666725 1933.25,333 C1922.08328,321.333275 1913.4167,307.50008 1907.25,291.5 C1901.0833,275.49992 1898,258.50009 1898,240.5 L1898,239.5 C1898,221.49991 1901.0833,204.50008 1907.25,188.5 C1913.4167,172.49992 1922.08328,158.666725 1933.25,147 C1944.41672,135.333275 1957.66659,126.083368 1973,119.25 C1988.33341,112.416633 2004.99991,109 2023,109 C2037.3334,109 2050.74994,111.083313 2063.25,115.25 C2075.75006,119.416687 2086.99995,125.249963 2097,132.75 C2107.00005,140.250038 2115.49996,149.083283 2122.5,159.25 C2129.50004,169.416718 2134.83331,180.49994 2138.5,192.5 L2138.5,0 L2149,0 L2149,365 L2138.5,365 L2138.5,287.5 C2134.83331,299.50006 2129.50004,310.583283 2122.5,320.75 C2115.49996,330.916718 2107.00005,339.749963 2097,347.25 C2086.99995,354.750038 2075.75006,360.583313 2063.25,364.75 C2050.74994,368.916688 2037.3334,371 2023,371 Z M2351,361 C2368.00009,361 2383.58326,357.750032 2397.75,351.25 C2411.91674,344.749968 2424.08328,336.000055 2434.25,325 C2444.41672,313.999945 2452.33331,301.250072 2458,286.75 C2463.66669,272.249928 2466.5,256.833415 2466.5,240.5 L2466.5,239.5 C2466.5,223.49992 2463.66669,208.16674 2458,193.5 C2452.33331,178.83326 2444.33338,166.000055 2434,155 C2423.66662,143.999945 2411.50007,135.250032 2397.5,128.75 C2383.49993,122.249968 2368.00009,119 2351,119 C2333.99992,119 2318.41674,122.083303 2304.25,128.25 C2290.08326,134.416697 2278.00005,142.916612 2268,153.75 C2257.99995,164.583388 2250.25003,177.33326 2244.75,192 C2239.24997,206.66674 2236.5,222.33325 2236.5,239 L2236.5,240 C2236.5,256.66675 2239.24997,272.33326 2244.75,287 C2250.25003,301.66674 2257.99995,314.499945 2268,325.5 C2278.00005,336.500055 2290.08326,345.166635 2304.25,351.5 C2318.41674,357.833365 2333.99992,361 2351,361 Z M2350.5,371 C2332.49991,371 2315.83341,367.583368 2300.5,360.75 C2285.16659,353.916633 2271.91672,344.666725 2260.75,333 C2249.58328,321.333275 2240.9167,307.50008 2234.75,291.5 C2228.5833,275.49992 2225.5,258.50009 2225.5,240.5 L2225.5,239.5 C2225.5,221.49991 2228.5833,204.50008 2234.75,188.5 C2240.9167,172.49992 2249.58328,158.666725 2260.75,147 C2271.91672,135.333275 2285.16659,126.083368 2300.5,119.25 C2315.83341,112.416633 2332.49991,109 2350.5,109 C2364.8334,109 2378.24994,111.083313 2390.75,115.25 C2403.25006,119.416687 2414.49995,125.249963 2424.5,132.75 C2434.50005,140.250038 2442.99996,149.083283 2450,159.25 C2457.00004,169.416718 2462.33331,180.49994 2466,192.5 L2466,0 L2476.5,0 L2476.5,365 L2466,365 L2466,287.5 C2462.33331,299.50006 2457.00004,310.583283 2450,320.75 C2442.99996,330.916718 2434.50005,339.749963 2424.5,347.25 C2414.49995,354.750038 2403.25006,360.583313 2390.75,364.75 C2378.24994,368.916688 2364.8334,371 2350.5,371 Z M2592,446.5 C2583.33329,446.5 2574.75004,445.16668 2566.25,442.5 C2557.74996,439.83332 2550.66669,436.666685 2545,433 L2550,424.5 C2555.66669,427.83335 2562.33329,430.749987 2570,433.25 C2577.66671,435.750013 2584.99996,437 2592,437 C2599.33337,437 2605.91664,436.083343 2611.75,434.25 C2617.58336,432.416657 2623.24997,428.83336 2628.75,423.5 C2634.25003,418.16664 2639.83331,410.83338 2645.5,401.5 C2651.16669,392.16662 2657.49996,380.000075 2664.5,365 L2544,115 L2555.5,115 L2669.5,354 L2777,115 L2788,115 L2672,370 C2664.66663,386.00008 2657.9167,398.99995 2651.75,409 C2645.5833,419.00005 2639.4167,426.749973 2633.25,432.25 C2627.0833,437.750027 2620.6667,441.49999 2614,443.5 C2607.3333,445.50001 2600.00004,446.5 2592,446.5 Z M2302.9225,503.057247 C2287.16029,509.425591 2271.09321,512.591665 2254.72076,512.555564 C2238.34832,512.519464 2222.78548,509.370174 2208.03178,503.1076 C2193.27808,496.845027 2179.78272,487.467802 2167.5453,474.975644 C2162.2991,469.620242 2141.90026,442.947456 2140.07765,426.895562 L2149.73749,426.895562 C2156.7895,443.460085 2165.96738,457.277996 2177.2714,468.349709 C2188.57541,479.421422 2200.87592,487.843366 2214.17329,493.615794 C2227.47066,499.388223 2241.4851,502.264337 2256.21702,502.244225 C2270.94894,502.224113 2292.71699,496.030114 2299.36724,490.527631 C2304.58932,486.206829 2282.76334,460.025424 2285.38084,442.39518 C2287.99834,424.764936 2297.32939,413.941345 2316.55939,412.124211 C2335.78938,410.307076 2355.85453,439.469309 2360.70682,428.014937 C2361.69087,425.691973 2363.0699,426.315912 2366.4869,412.124211 L2376.6156,414.503158 C2372.59445,433.024934 2364.40658,450.353861 2352.05174,466.490457 C2339.69689,482.627052 2323.32064,494.815861 2302.9225,503.057247 Z M2027,300 L2042.5,300 L2042.5,328.5 L2027,328.5 L2027,300 Z M2355,300 L2370.5,300 L2370.5,328.5 L2355,328.5 L2355,300 Z" id="Meal-Buddy" fill="#000000"></path>
    </g>
</svg>